<svg width="1240" height="520" viewBox="0 0 1240 520" fill="none" xmlns="http://www.w3.org/2000/svg">
  <defs>
    <linearGradient id="bg-i" x1="42" y1="28" x2="1190" y2="502" gradientUnits="userSpaceOnUse">
      <stop stop-color="#F6F2EA"/>
      <stop offset="1" stop-color="#E8EDF7"/>
    </linearGradient>
    <filter id="shadow-i" x="-20%" y="-20%" width="140%" height="160%">
      <feDropShadow dx="0" dy="18" stdDeviation="20" flood-color="#101828" flood-opacity="0.10"/>
    </filter>
  </defs>

  <rect width="1240" height="520" rx="34" fill="url(#bg-i)"/>
  <circle cx="1108" cy="84" r="96" fill="#DCE4F3"/>
  <circle cx="92" cy="454" r="126" fill="#ECE2D4"/>

  <text x="58" y="58" fill="#667085" style="font:700 14px 'Consolas', 'Courier New', monospace; letter-spacing:1.8px;">STYLE I</text>
  <text x="58" y="94" fill="#101828" style="font:700 34px Georgia, serif;">Dark Editorial</text>
  <text x="58" y="122" fill="#475467" style="font:400 18px 'Segoe UI', Arial, sans-serif;">Magazine seriousness with high-contrast pacing</text>

  <g filter="url(#shadow-i)">
    <rect x="58" y="146" width="664" height="328" rx="34" fill="#FFFFFF" fill-opacity="0.9"/>
    
      <rect x="84" y="98" width="612" height="324" rx="26" fill="#111116"/>
      <text x="146" y="220" style="font:700 58px Georgia, serif; fill:#E8E4DC;">Sharp</text>
      <text x="146" y="288" style="font:700 76px Georgia, serif; fill:#E8E4DC;">Evidence</text>
      <line x1="146" y1="300" x2="482" y2="300" stroke="#A89878" stroke-width="1.4" stroke-opacity="0.5"/>
      <line x1="146" y1="320" x2="402" y2="320" stroke="#2A2A30" stroke-width="1.4"/>
      <text x="476" y="248" fill="#B8A98D" style="font:600 16px 'Segoe UI', Arial, sans-serif; letter-spacing:0.6px;"><tspan x="476" dy="0">LONGFORM</tspan><tspan x="476" dy="24">Authority by pacing</tspan></text>
    
  </g>

  <rect x="756" y="146" width="426" height="328" rx="30" fill="#FFFFFF" fill-opacity="0.92" filter="url(#shadow-i)"/>
  <text x="792" y="192" fill="#667085" style="font:700 12px 'Consolas', 'Courier New', monospace; letter-spacing:1.4px;">CASE EXAMPLE</text>
  <text x="792" y="234" fill="#101828" style="font:700 32px Georgia, serif;"><tspan x="792" dy="0">Ocean Surveillance Documentary</tspan></text>
  <text x="792" y="286" fill="#344054" style="font:400 18px 'Segoe UI', Arial, sans-serif;"><tspan x="792" dy="0">Longform research storytelling with</tspan><tspan x="792" dy="28">dark breathing room, sharp headlines,</tspan><tspan x="792" dy="28">and a deliberate investigative tone.</tspan></text>
  <text x="792" y="392" fill="#667085" style="font:700 12px 'Consolas', 'Courier New', monospace; letter-spacing:1.4px;">BEST FOR</text>
  <text x="792" y="418" fill="#101828" style="font:600 18px 'Segoe UI', Arial, sans-serif;">Research, documentaries, findings</text>

  <rect x="792" y="438" width="118" height="24" rx="12" fill="#FEE4E2"/>
  <text x="816" y="454" fill="#7A271A" style="font:700 12px 'Segoe UI', Arial, sans-serif;">DARK NATIVE</text>
  <text x="930" y="454" fill="#475467" style="font:600 14px 'Segoe UI', Arial, sans-serif;">Background: paper only</text>
</svg>