<svg width="1240" height="520" viewBox="0 0 1240 520" fill="none" xmlns="http://www.w3.org/2000/svg">
  <defs>
    <linearGradient id="bg-j" x1="42" y1="28" x2="1190" y2="502" gradientUnits="userSpaceOnUse">
      <stop stop-color="#F6F2EA"/>
      <stop offset="1" stop-color="#E8EDF7"/>
    </linearGradient>
    <filter id="shadow-j" x="-20%" y="-20%" width="140%" height="160%">
      <feDropShadow dx="0" dy="18" stdDeviation="20" flood-color="#101828" flood-opacity="0.10"/>
    </filter>
  </defs>

  <rect width="1240" height="520" rx="34" fill="url(#bg-j)"/>
  <circle cx="1108" cy="84" r="96" fill="#DCE4F3"/>
  <circle cx="92" cy="454" r="126" fill="#ECE2D4"/>

  <text x="58" y="58" fill="#667085" style="font:700 14px 'Consolas', 'Courier New', monospace; letter-spacing:1.8px;">STYLE J</text>
  <text x="58" y="94" fill="#101828" style="font:700 34px Georgia, serif;">Memphis Pop</text>
  <text x="58" y="122" fill="#475467" style="font:400 18px 'Segoe UI', Arial, sans-serif;">Playful collisions and anti-grid movement</text>

  <g filter="url(#shadow-j)">
    <rect x="58" y="146" width="664" height="328" rx="34" fill="#FFFFFF" fill-opacity="0.9"/>
    
      <rect x="84" y="98" width="612" height="324" rx="26" fill="#FAF5E8"/>
      <circle cx="176" cy="180" r="26" fill="#2EC4B6" stroke="#2A2A2A" stroke-width="3"/>
      <polygon points="506,130 548,214 464,214" fill="#FFD23F" stroke="#2A2A2A" stroke-width="3"/>
      <path d="M128 312 Q154 270 180 312 Q206 354 232 312 Q258 270 284 312" stroke="#FF8A5C" stroke-width="7" fill="none"/>
      <path d="M362 324 L392 294 L422 324 L452 294 L482 324" stroke="#FF6B9D" stroke-width="7" fill="none"/>
      <rect x="284" y="170" width="62" height="62" fill="#4A90D9" stroke="#2A2A2A" stroke-width="3"/>
      <text x="464" y="274" fill="#6A6560" style="font:600 16px 'Segoe UI', Arial, sans-serif; letter-spacing:0.6px;"><tspan x="464" dy="0">READ LOUD</tspan><tspan x="464" dy="24">Color as momentum</tspan></text>
    
  </g>

  <rect x="756" y="146" width="426" height="328" rx="30" fill="#FFFFFF" fill-opacity="0.92" filter="url(#shadow-j)"/>
  <text x="792" y="192" fill="#667085" style="font:700 12px 'Consolas', 'Courier New', monospace; letter-spacing:1.4px;">CASE EXAMPLE</text>
  <text x="792" y="234" fill="#101828" style="font:700 32px Georgia, serif;"><tspan x="792" dy="0">School Reading Campaign</tspan></text>
  <text x="792" y="286" fill="#344054" style="font:400 18px 'Segoe UI', Arial, sans-serif;"><tspan x="792" dy="0">Education slides with bright shapes,</tspan><tspan x="792" dy="28">scattered motion, and a fun rhythm</tspan><tspan x="792" dy="28">that keeps the story energetic.</tspan></text>
  <text x="792" y="392" fill="#667085" style="font:700 12px 'Consolas', 'Courier New', monospace; letter-spacing:1.4px;">BEST FOR</text>
  <text x="792" y="418" fill="#101828" style="font:600 18px 'Segoe UI', Arial, sans-serif;">Education, social campaigns, festivals</text>

  <rect x="792" y="438" width="118" height="24" rx="12" fill="#D1FADF"/>
  <text x="816" y="454" fill="#0F5132" style="font:700 12px 'Segoe UI', Arial, sans-serif;">WHITE OK</text>
  <text x="930" y="454" fill="#475467" style="font:600 14px 'Segoe UI', Arial, sans-serif;">Background: paper or white</text>
</svg>