<svg width="1600" height="1280" viewBox="0 0 1600 1280" fill="none" xmlns="http://www.w3.org/2000/svg">
  <defs>
    <linearGradient id="bg" x1="120" y1="60" x2="1480" y2="1220" gradientUnits="userSpaceOnUse">
      <stop stop-color="#F4F1EA"/>
      <stop offset="1" stop-color="#E9EDF5"/>
    </linearGradient>
    <filter id="shadow" x="-20%" y="-20%" width="140%" height="140%">
      <feDropShadow dx="0" dy="18" stdDeviation="20" flood-color="#101828" flood-opacity="0.08"/>
    </filter>
    <style>
      .title { font: 700 48px 'Segoe UI', Arial, sans-serif; fill: #101828; }
      .subtitle { font: 400 22px 'Segoe UI', Arial, sans-serif; fill: #475467; }
      .legend-title { font: 700 18px 'Segoe UI', Arial, sans-serif; fill: #344054; }
      .legend-text { font: 400 16px 'Segoe UI', Arial, sans-serif; fill: #475467; }
      .card-title { font: 700 24px 'Segoe UI', Arial, sans-serif; fill: #101828; }
      .card-style { font: 700 14px 'Consolas', 'Courier New', monospace; letter-spacing: 1.6px; fill: #667085; }
      .card-copy { font: 400 15px 'Segoe UI', Arial, sans-serif; fill: #344054; }
      .card-fit { font: 600 14px 'Segoe UI', Arial, sans-serif; fill: #475467; }
      .chip-light { font: 700 12px 'Segoe UI', Arial, sans-serif; fill: #0F5132; }
      .chip-dark { font: 700 12px 'Segoe UI', Arial, sans-serif; fill: #7A271A; }
      .label { font: 700 16px 'Segoe UI', Arial, sans-serif; fill: #FFFFFF; }
      .footer { font: 400 14px 'Segoe UI', Arial, sans-serif; fill: #667085; }
    </style>
  </defs>

  <rect width="1600" height="1280" fill="url(#bg)"/>
  <circle cx="1320" cy="160" r="180" fill="#DDE5F3"/>
  <circle cx="220" cy="1180" r="220" fill="#E8DED0"/>

  <text x="92" y="110" class="title">PPT Design Style Overview</text>
  <text x="92" y="148" class="subtitle">Ten reusable presentation directions with visual character, content fit, and white-background support.</text>

  <rect x="92" y="182" width="1416" height="84" rx="24" fill="#FFFFFF" fill-opacity="0.88" filter="url(#shadow)"/>
  <text x="122" y="216" class="legend-title">Legend</text>
  <rect x="122" y="228" width="108" height="24" rx="12" fill="#D1FADF"/>
  <text x="145" y="245" class="chip-light">WHITE OK</text>
  <text x="246" y="245" class="legend-text">supports `background_mode=white`</text>
  <rect x="540" y="228" width="118" height="24" rx="12" fill="#FEE4E2"/>
  <text x="561" y="245" class="chip-dark">DARK NATIVE</text>
  <text x="674" y="245" class="legend-text">keep original dark background</text>
  <text x="1085" y="245" class="legend-text">Default output language for style guidance: English</text>

  <!-- Row 1 -->
  <g transform="translate(92 304)" filter="url(#shadow)">
    <rect width="256" height="402" rx="26" fill="#FFFFFF"/>
    <rect x="20" y="20" width="216" height="138" rx="18" fill="#F0EBE2"/>
    <rect x="32" y="32" width="152" height="4" fill="#B85038"/>
    <rect x="32" y="50" width="120" height="48" fill="none"/>
    <text x="32" y="76" style="font:700 30px 'Georgia', serif; fill:#22242C;">A</text>
    <text x="68" y="76" style="font:700 26px 'Segoe UI', Arial, sans-serif; fill:#22242C;">Swiss</text>
    <line x1="32" y1="120" x2="224" y2="120" stroke="#B7ACA0" stroke-width="1"/>
    <line x1="32" y1="134" x2="206" y2="134" stroke="#2A2A30" stroke-opacity="0.2" stroke-width="1"/>
    <line x1="20" y1="20" x2="20" y2="36" stroke="#2A2A30" stroke-opacity="0.25"/>
    <line x1="20" y1="20" x2="36" y2="20" stroke="#2A2A30" stroke-opacity="0.25"/>
    <line x1="236" y1="20" x2="220" y2="20" stroke="#2A2A30" stroke-opacity="0.25"/>
    <line x1="236" y1="20" x2="236" y2="36" stroke="#2A2A30" stroke-opacity="0.25"/>
    <text x="24" y="190" class="card-style">STYLE A</text>
    <text x="24" y="220" class="card-title">Swiss International</text>
    <text x="24" y="254" class="card-copy">Grid-first, editorial, restrained, asymmetrical.</text>
    <text x="24" y="292" class="card-fit">Best for: reports, policy, finance</text>
    <rect x="24" y="330" width="96" height="24" rx="12" fill="#D1FADF"/>
    <text x="45" y="347" class="chip-light">WHITE OK</text>
  </g>

  <g transform="translate(376 304)" filter="url(#shadow)">
    <rect width="256" height="402" rx="26" fill="#FFFFFF"/>
    <rect x="20" y="20" width="216" height="138" rx="18" fill="#F5F0E6"/>
    <circle cx="96" cy="90" r="34" fill="#2D3A5C"/>
    <line x1="32" y1="126" x2="224" y2="126" stroke="#C45A3C" stroke-width="2"/>
    <text x="24" y="190" class="card-style">STYLE B</text>
    <text x="24" y="220" class="card-title">East Asian Minimalism</text>
    <text x="24" y="254" class="card-copy">Quiet, spacious, reflective, one focal form.</text>
    <text x="24" y="292" class="card-fit">Best for: brand values, exhibitions</text>
    <rect x="24" y="330" width="96" height="24" rx="12" fill="#D1FADF"/>
    <text x="45" y="347" class="chip-light">WHITE OK</text>
  </g>

  <g transform="translate(660 304)" filter="url(#shadow)">
    <rect width="256" height="402" rx="26" fill="#FFFFFF"/>
    <rect x="20" y="20" width="216" height="138" rx="18" fill="#F2EDE0"/>
    <circle cx="95" cy="88" r="38" fill="#E8456B" fill-opacity="0.72"/>
    <circle cx="128" cy="94" r="38" fill="#1A5C5A" fill-opacity="0.72"/>
    <rect x="36" y="116" width="148" height="16" fill="#1A5C5A"/>
    <rect x="40" y="119" width="148" height="16" fill="#E8456B" fill-opacity="0.24"/>
    <text x="24" y="190" class="card-style">STYLE C</text>
    <text x="24" y="220" class="card-title">Risograph Print</text>
    <text x="24" y="254" class="card-copy">Two-ink logic, overprint, rough paper energy.</text>
    <text x="24" y="292" class="card-fit">Best for: indie brands, creative pitches</text>
    <rect x="24" y="330" width="96" height="24" rx="12" fill="#D1FADF"/>
    <text x="45" y="347" class="chip-light">WHITE OK</text>
  </g>

  <g transform="translate(944 304)" filter="url(#shadow)">
    <rect width="256" height="402" rx="26" fill="#FFFFFF"/>
    <rect x="20" y="20" width="216" height="138" rx="18" fill="#F2EDE4"/>
    <polygon points="24,130 164,22 224,22 84,130" fill="#D4C8A8"/>
    <polygon points="108,136 224,50 224,136" fill="#8A3A2A"/>
    <rect x="34" y="40" width="60" height="18" fill="#1A1A1A"/>
    <text x="24" y="190" class="card-style">STYLE D</text>
    <text x="24" y="220" class="card-title">Bauhaus Geometry</text>
    <text x="24" y="254" class="card-copy">Diagonal blocks, structure, poster tension.</text>
    <text x="24" y="292" class="card-fit">Best for: systems, architecture, strategy</text>
    <rect x="24" y="330" width="96" height="24" rx="12" fill="#D1FADF"/>
    <text x="45" y="347" class="chip-light">WHITE OK</text>
  </g>

  <g transform="translate(1228 304)" filter="url(#shadow)">
    <rect width="256" height="402" rx="26" fill="#FFFFFF"/>
    <rect x="20" y="20" width="216" height="138" rx="18" fill="#F2ECE2"/>
    <path d="M54 116C24 96 28 54 74 40C120 26 164 42 170 76C176 112 132 132 92 126C76 124 64 121 54 116Z" fill="#A07850"/>
    <path d="M124 42C154 36 182 48 194 72C204 92 198 116 176 126C156 136 132 130 118 116C102 100 100 80 106 64C109 54 114 46 124 42Z" fill="#6A8A7A" fill-opacity="0.84"/>
    <path d="M34 128C66 110 104 112 138 132" stroke="#3A3530" stroke-opacity="0.35" stroke-width="4" stroke-linecap="round"/>
    <text x="24" y="190" class="card-style">STYLE E</text>
    <text x="24" y="220" class="card-title">Organic Handcrafted</text>
    <text x="24" y="254" class="card-copy">Soft forms, tactile texture, human warmth.</text>
    <text x="24" y="292" class="card-fit">Best for: wellness, culture, food stories</text>
    <rect x="24" y="330" width="96" height="24" rx="12" fill="#D1FADF"/>
    <text x="45" y="347" class="chip-light">WHITE OK</text>
  </g>

  <!-- Row 2 -->
  <g transform="translate(92 738)" filter="url(#shadow)">
    <rect width="256" height="402" rx="26" fill="#FFFFFF"/>
    <rect x="20" y="20" width="216" height="138" rx="18" fill="#0E1118"/>
    <path d="M128 34 L180 116 L76 116 Z" stroke="#C4A265" stroke-width="1.2" fill="none"/>
    <line x1="128" y1="28" x2="128" y2="130" stroke="#C4A265" stroke-width="1"/>
    <line x1="60" y1="134" x2="196" y2="134" stroke="#C4A265" stroke-width="1"/>
    <text x="24" y="190" class="card-style">STYLE F</text>
    <text x="24" y="220" class="card-title">Art Deco Luxury</text>
    <text x="24" y="254" class="card-copy">Dark, symmetrical, premium, linework-led.</text>
    <text x="24" y="292" class="card-fit">Best for: hospitality, awards, luxury</text>
    <rect x="24" y="330" width="108" height="24" rx="12" fill="#FEE4E2"/>
    <text x="41" y="347" class="chip-dark">DARK NATIVE</text>
  </g>

  <g transform="translate(376 738)" filter="url(#shadow)">
    <rect width="256" height="402" rx="26" fill="#FFFFFF"/>
    <rect x="20" y="20" width="216" height="138" rx="18" fill="#F5F0E0"/>
    <rect x="36" y="42" width="118" height="44" fill="#FFE156" stroke="#1A1A1A" stroke-width="4"/>
    <rect x="74" y="74" width="124" height="40" fill="#FF6B6B" stroke="#1A1A1A" stroke-width="4"/>
    <rect x="142" y="34" width="62" height="26" transform="rotate(6 142 34)" fill="#4ECDC4" stroke="#1A1A1A" stroke-width="4"/>
    <text x="24" y="190" class="card-style">STYLE G</text>
    <text x="24" y="220" class="card-title">Neo Brutalism</text>
    <text x="24" y="254" class="card-copy">Borders, hard shadows, loud hierarchy, attitude.</text>
    <text x="24" y="292" class="card-fit">Best for: startups, launches, bold decks</text>
    <rect x="24" y="330" width="96" height="24" rx="12" fill="#D1FADF"/>
    <text x="45" y="347" class="chip-light">WHITE OK</text>
  </g>

  <g transform="translate(660 738)" filter="url(#shadow)">
    <rect width="256" height="402" rx="26" fill="#FFFFFF"/>
    <rect x="20" y="20" width="216" height="138" rx="18" fill="#0B0D1D"/>
    <line x1="28" y1="132" x2="228" y2="132" stroke="#2A6A8A" stroke-width="1.5"/>
    <line x1="72" y1="50" x2="28" y2="132" stroke="#1A3A5A" stroke-width="1"/>
    <line x1="112" y1="50" x2="78" y2="132" stroke="#1A3A5A" stroke-width="1"/>
    <line x1="152" y1="50" x2="128" y2="132" stroke="#1A3A5A" stroke-width="1"/>
    <line x1="192" y1="50" x2="178" y2="132" stroke="#1A3A5A" stroke-width="1"/>
    <line x1="36" y1="118" x2="220" y2="118" stroke="#40E8D0" stroke-opacity="0.7" stroke-width="1.5"/>
    <text x="24" y="190" class="card-style">STYLE H</text>
    <text x="24" y="220" class="card-title">Retro Futurism</text>
    <text x="24" y="254" class="card-copy">Dark horizon grid, CRT lines, restrained neon.</text>
    <text x="24" y="292" class="card-fit">Best for: gaming, space, future tech</text>
    <rect x="24" y="330" width="108" height="24" rx="12" fill="#FEE4E2"/>
    <text x="41" y="347" class="chip-dark">DARK NATIVE</text>
  </g>

  <g transform="translate(944 738)" filter="url(#shadow)">
    <rect width="256" height="402" rx="26" fill="#FFFFFF"/>
    <rect x="20" y="20" width="216" height="138" rx="18" fill="#111116"/>
    <text x="34" y="78" style="font:700 34px Georgia, serif; fill:#E8E4DC;">Sharp</text>
    <text x="34" y="114" style="font:700 42px Georgia, serif; fill:#E8E4DC;">Editorial</text>
    <line x1="34" y1="126" x2="214" y2="126" stroke="#A89878" stroke-width="1" stroke-opacity="0.5"/>
    <line x1="34" y1="138" x2="176" y2="138" stroke="#2A2A30" stroke-width="1"/>
    <text x="24" y="190" class="card-style">STYLE I</text>
    <text x="24" y="220" class="card-title">Dark Editorial</text>
    <text x="24" y="254" class="card-copy">Serious, premium, typographic, investigative.</text>
    <text x="24" y="292" class="card-fit">Best for: research, docs, longform stories</text>
    <rect x="24" y="330" width="108" height="24" rx="12" fill="#FEE4E2"/>
    <text x="41" y="347" class="chip-dark">DARK NATIVE</text>
  </g>

  <g transform="translate(1228 738)" filter="url(#shadow)">
    <rect width="256" height="402" rx="26" fill="#FFFFFF"/>
    <rect x="20" y="20" width="216" height="138" rx="18" fill="#FAF5E8"/>
    <circle cx="62" cy="62" r="16" fill="#2EC4B6" stroke="#2A2A2A" stroke-width="2"/>
    <polygon points="174,34 204,88 144,88" fill="#FFD23F" stroke="#2A2A2A" stroke-width="2"/>
    <path d="M36 112 Q52 92 68 112 Q84 132 100 112 Q116 92 132 112" stroke="#FF8A5C" stroke-width="4" fill="none"/>
    <path d="M148 118 L164 102 L180 118 L196 102 L212 118" stroke="#FF6B9D" stroke-width="4" fill="none"/>
    <text x="24" y="190" class="card-style">STYLE J</text>
    <text x="24" y="220" class="card-title">Memphis Pop</text>
    <text x="24" y="254" class="card-copy">Bright collision, scattered geometry, playful rhythm.</text>
    <text x="24" y="292" class="card-fit">Best for: education, social, entertainment</text>
    <rect x="24" y="330" width="96" height="24" rx="12" fill="#D1FADF"/>
    <text x="45" y="347" class="chip-light">WHITE OK</text>
  </g>

  <text x="92" y="1218" class="footer">Use this overview at the top of README.md, then let readers copy a matching prompt template from the sections below.</text>
</svg>
