<svg width="1240" height="520" viewBox="0 0 1240 520" fill="none" xmlns="http://www.w3.org/2000/svg">
  <defs>
    <linearGradient id="bg-a" x1="42" y1="28" x2="1190" y2="502" gradientUnits="userSpaceOnUse">
      <stop stop-color="#F6F2EA"/>
      <stop offset="1" stop-color="#E8EDF7"/>
    </linearGradient>
    <filter id="shadow-a" x="-20%" y="-20%" width="140%" height="160%">
      <feDropShadow dx="0" dy="18" stdDeviation="20" flood-color="#101828" flood-opacity="0.10"/>
    </filter>
  </defs>

  <rect width="1240" height="520" rx="34" fill="url(#bg-a)"/>
  <circle cx="1108" cy="84" r="96" fill="#DCE4F3"/>
  <circle cx="92" cy="454" r="126" fill="#ECE2D4"/>

  <text x="58" y="58" fill="#667085" style="font:700 14px 'Consolas', 'Courier New', monospace; letter-spacing:1.8px;">STYLE A</text>
  <text x="58" y="94" fill="#101828" style="font:700 34px Georgia, serif;">Swiss International</text>
  <text x="58" y="122" fill="#475467" style="font:400 18px 'Segoe UI', Arial, sans-serif;">Editorial grid with one controlled disruption</text>

  <g filter="url(#shadow-a)">
    <rect x="58" y="146" width="664" height="328" rx="34" fill="#FFFFFF" fill-opacity="0.9"/>
    
      <rect x="84" y="98" width="612" height="324" rx="26" fill="#F0EBE2"/>
      <line x1="130" y1="138" x2="304" y2="138" stroke="#B85038" stroke-width="5"/>
      <text x="130" y="210" style="font:700 54px Georgia, serif; fill:#22242C;">ASEAN</text>
      <text x="130" y="278" style="font:700 94px Georgia, serif; fill:#22242C;">48%</text>
      <line x1="130" y1="298" x2="372" y2="298" stroke="#2A2A30" stroke-opacity="0.16"/>
      <rect x="468" y="148" width="164" height="120" fill="none" stroke="#2A2A30" stroke-opacity="0.18"/>
      <path d="M486 246 L524 216 L560 224 L600 182" stroke="#B85038" stroke-width="4" fill="none"/>
      <text x="468" y="314" fill="#6A6560" style="font:600 14px 'Segoe UI', Arial, sans-serif; letter-spacing:0.6px;"><tspan x="468" dy="0">MARKET SHARE</tspan><tspan x="468" dy="22">Grid-first summary</tspan></text>
      <line x1="84" y1="98" x2="84" y2="116" stroke="#2A2A30" stroke-opacity="0.28"/>
      <line x1="84" y1="98" x2="102" y2="98" stroke="#2A2A30" stroke-opacity="0.28"/>
      <line x1="696" y1="98" x2="678" y2="98" stroke="#2A2A30" stroke-opacity="0.28"/>
      <line x1="696" y1="98" x2="696" y2="116" stroke="#2A2A30" stroke-opacity="0.28"/>
    
  </g>

  <rect x="756" y="146" width="426" height="328" rx="30" fill="#FFFFFF" fill-opacity="0.92" filter="url(#shadow-a)"/>
  <text x="792" y="192" fill="#667085" style="font:700 12px 'Consolas', 'Courier New', monospace; letter-spacing:1.4px;">CASE EXAMPLE</text>
  <text x="792" y="234" fill="#101828" style="font:700 32px Georgia, serif;"><tspan x="792" dy="0">ASEAN EV Market Outlook</tspan></text>
  <text x="792" y="286" fill="#344054" style="font:400 18px 'Segoe UI', Arial, sans-serif;"><tspan x="792" dy="0">Regional investor briefing with one</tspan><tspan x="792" dy="28">headline number, one proof chart,</tspan><tspan x="792" dy="28">and a restrained print finish.</tspan></text>
  <text x="792" y="392" fill="#667085" style="font:700 12px 'Consolas', 'Courier New', monospace; letter-spacing:1.4px;">BEST FOR</text>
  <text x="792" y="418" fill="#101828" style="font:600 18px 'Segoe UI', Arial, sans-serif;">Reports, policy, finance</text>

  <rect x="792" y="438" width="118" height="24" rx="12" fill="#D1FADF"/>
  <text x="816" y="454" fill="#0F5132" style="font:700 12px 'Segoe UI', Arial, sans-serif;">WHITE OK</text>
  <text x="930" y="454" fill="#475467" style="font:600 14px 'Segoe UI', Arial, sans-serif;">Background: paper or white</text>
</svg>