<svg width="1600" height="920" viewBox="0 0 1600 920" fill="none" xmlns="http://www.w3.org/2000/svg">
  <defs>
    <linearGradient id="index-bg" x1="84" y1="36" x2="1516" y2="884" gradientUnits="userSpaceOnUse">
      <stop stop-color="#F8F5EE"/>
      <stop offset="1" stop-color="#EAF0F9"/>
    </linearGradient>
    <filter id="tile-shadow" x="-20%" y="-20%" width="140%" height="160%">
      <feDropShadow dx="0" dy="16" stdDeviation="18" flood-color="#101828" flood-opacity="0.08"/>
    </filter>
  </defs>

  <rect width="1600" height="920" fill="url(#index-bg)"/>
  <circle cx="1388" cy="122" r="164" fill="#DCE5F5"/>
  <circle cx="166" cy="828" r="196" fill="#ECE2D4"/>

  <text x="92" y="92" fill="#101828" style="font:700 48px Georgia, serif;">PPT Design Style Index</text>
  <text x="92" y="130" fill="#475467" style="font:400 20px 'Segoe UI', Arial, sans-serif;">A light index of the ten directions, where each style keeps its own standalone motif.</text>

  <rect x="92" y="148" width="510" height="18" rx="9" fill="#FFFFFF" fill-opacity="0.72"/>
  <text x="108" y="161" fill="#667085" style="font:700 12px 'Consolas', 'Courier New', monospace; letter-spacing:1.4px;">INDEX ONLY. FULL CASE BOARDS LIVE IN EACH STYLE SECTION BELOW.</text>
  
  <g transform="translate(92 182)" filter="url(#tile-shadow)">
    <rect width="264" height="272" rx="26" fill="#FFFFFF" fill-opacity="0.94"/>
    <rect x="18" y="18" width="228" height="150" rx="20" fill="#F7F3EC"/>
    <g transform="translate(90 178) scale(0.235)">
      
      <rect x="84" y="98" width="612" height="324" rx="26" fill="#F0EBE2"/>
      <line x1="130" y1="138" x2="304" y2="138" stroke="#B85038" stroke-width="5"/>
      <text x="130" y="210" style="font:700 54px Georgia, serif; fill:#22242C;">ASEAN</text>
      <text x="130" y="278" style="font:700 94px Georgia, serif; fill:#22242C;">48%</text>
      <line x1="130" y1="298" x2="372" y2="298" stroke="#2A2A30" stroke-opacity="0.16"/>
      <rect x="468" y="148" width="164" height="120" fill="none" stroke="#2A2A30" stroke-opacity="0.18"/>
      <path d="M486 246 L524 216 L560 224 L600 182" stroke="#B85038" stroke-width="4" fill="none"/>
      
      <line x1="84" y1="98" x2="84" y2="116" stroke="#2A2A30" stroke-opacity="0.28"/>
      <line x1="84" y1="98" x2="102" y2="98" stroke="#2A2A30" stroke-opacity="0.28"/>
      <line x1="696" y1="98" x2="678" y2="98" stroke="#2A2A30" stroke-opacity="0.28"/>
      <line x1="696" y1="98" x2="696" y2="116" stroke="#2A2A30" stroke-opacity="0.28"/>
    
    </g>
    <text x="22" y="198" fill="#667085" style="font:700 12px 'Consolas', 'Courier New', monospace; letter-spacing:1.5px;">STYLE A</text>
    <text x="22" y="226" fill="#101828" style="font:700 24px Georgia, serif;">Swiss International</text>
    <rect x="22" y="242" width="104" height="16" rx="8" fill="#D1FADF"/>
    <text x="44" y="254" fill="#0F5132" style="font:700 11px 'Segoe UI', Arial, sans-serif;">WHITE OK</text>
  </g>
  <g transform="translate(380 182)" filter="url(#tile-shadow)">
    <rect width="264" height="272" rx="26" fill="#FFFFFF" fill-opacity="0.94"/>
    <rect x="18" y="18" width="228" height="150" rx="20" fill="#F7F3EC"/>
    <g transform="translate(378 178) scale(0.235)">
      
      <rect x="84" y="98" width="612" height="324" rx="26" fill="#F5F0E6"/>
      <circle cx="246" cy="220" r="72" fill="#2D3A5C"/>
      <line x1="146" y1="332" x2="642" y2="332" stroke="#C45A3C" stroke-width="2"/>
      
    
    </g>
    <text x="22" y="198" fill="#667085" style="font:700 12px 'Consolas', 'Courier New', monospace; letter-spacing:1.5px;">STYLE B</text>
    <text x="22" y="226" fill="#101828" style="font:700 24px Georgia, serif;">East Asian Minimalism</text>
    <rect x="22" y="242" width="104" height="16" rx="8" fill="#D1FADF"/>
    <text x="44" y="254" fill="#0F5132" style="font:700 11px 'Segoe UI', Arial, sans-serif;">WHITE OK</text>
  </g>
  <g transform="translate(668 182)" filter="url(#tile-shadow)">
    <rect width="264" height="272" rx="26" fill="#FFFFFF" fill-opacity="0.94"/>
    <rect x="18" y="18" width="228" height="150" rx="20" fill="#F7F3EC"/>
    <g transform="translate(666 178) scale(0.235)">
      
      <rect x="84" y="98" width="612" height="324" rx="26" fill="#F2EDE0"/>
      <circle cx="248" cy="210" r="82" fill="#E8456B" fill-opacity="0.78"/>
      <circle cx="328" cy="224" r="82" fill="#1A5C5A" fill-opacity="0.78"/>
      <rect x="154" y="292" width="220" height="20" fill="#1A5C5A"/>
      <rect x="162" y="300" width="220" height="20" fill="#E8456B" fill-opacity="0.28"/>
      <rect x="452" y="138" width="112" height="112" fill="#1A5C5A"/>
      
    
    </g>
    <text x="22" y="198" fill="#667085" style="font:700 12px 'Consolas', 'Courier New', monospace; letter-spacing:1.5px;">STYLE C</text>
    <text x="22" y="226" fill="#101828" style="font:700 24px Georgia, serif;">Risograph Print</text>
    <rect x="22" y="242" width="104" height="16" rx="8" fill="#D1FADF"/>
    <text x="44" y="254" fill="#0F5132" style="font:700 11px 'Segoe UI', Arial, sans-serif;">WHITE OK</text>
  </g>
  <g transform="translate(956 182)" filter="url(#tile-shadow)">
    <rect width="264" height="272" rx="26" fill="#FFFFFF" fill-opacity="0.94"/>
    <rect x="18" y="18" width="228" height="150" rx="20" fill="#F7F3EC"/>
    <g transform="translate(954 178) scale(0.235)">
      
      <rect x="84" y="98" width="612" height="324" rx="26" fill="#F2EDE4"/>
      <polygon points="124,392 394,134 658,134 388,392" fill="#D4C8A8"/>
      <polygon points="408,392 696,190 696,392" fill="#8A3A2A"/>
      <rect x="154" y="170" width="116" height="28" fill="#1A1A1A"/>
      
    
    </g>
    <text x="22" y="198" fill="#667085" style="font:700 12px 'Consolas', 'Courier New', monospace; letter-spacing:1.5px;">STYLE D</text>
    <text x="22" y="226" fill="#101828" style="font:700 24px Georgia, serif;">Bauhaus Geometry</text>
    <rect x="22" y="242" width="104" height="16" rx="8" fill="#D1FADF"/>
    <text x="44" y="254" fill="#0F5132" style="font:700 11px 'Segoe UI', Arial, sans-serif;">WHITE OK</text>
  </g>
  <g transform="translate(1244 182)" filter="url(#tile-shadow)">
    <rect width="264" height="272" rx="26" fill="#FFFFFF" fill-opacity="0.94"/>
    <rect x="18" y="18" width="228" height="150" rx="20" fill="#F7F3EC"/>
    <g transform="translate(1242 178) scale(0.235)">
      
      <rect x="84" y="98" width="612" height="324" rx="26" fill="#F2ECE2"/>
      <path d="M212 346C144 304 148 208 238 170C328 132 434 154 452 228C470 308 392 362 310 356C266 352 234 352 212 346Z" fill="#A07850"/>
      <path d="M390 172C444 158 498 182 522 226C548 272 532 338 478 360C424 382 372 354 346 320C314 280 326 218 350 192C360 180 372 176 390 172Z" fill="#6A8A7A" fill-opacity="0.86"/>
      <path d="M150 356C222 318 302 318 382 352" stroke="#3A3530" stroke-opacity="0.35" stroke-width="6" stroke-linecap="round"/>
      
    
    </g>
    <text x="22" y="198" fill="#667085" style="font:700 12px 'Consolas', 'Courier New', monospace; letter-spacing:1.5px;">STYLE E</text>
    <text x="22" y="226" fill="#101828" style="font:700 24px Georgia, serif;">Organic Handcrafted</text>
    <rect x="22" y="242" width="104" height="16" rx="8" fill="#D1FADF"/>
    <text x="44" y="254" fill="#0F5132" style="font:700 11px 'Segoe UI', Arial, sans-serif;">WHITE OK</text>
  </g>
  <g transform="translate(92 478)" filter="url(#tile-shadow)">
    <rect width="264" height="272" rx="26" fill="#FFFFFF" fill-opacity="0.94"/>
    <rect x="18" y="18" width="228" height="150" rx="20" fill="#F7F3EC"/>
    <g transform="translate(90 474) scale(0.235)">
      
      <rect x="84" y="98" width="612" height="324" rx="26" fill="#0E1118"/>
      <path d="M390 140 L486 310 L294 310 Z" stroke="#C4A265" stroke-width="2.4" fill="none"/>
      <line x1="390" y1="124" x2="390" y2="334" stroke="#C4A265" stroke-width="1.4"/>
      <line x1="242" y1="320" x2="538" y2="320" stroke="#C4A265" stroke-width="1.4"/>
      <line x1="210" y1="160" x2="570" y2="160" stroke="#C4A265" stroke-opacity="0.36"/>
      
    
    </g>
    <text x="22" y="198" fill="#667085" style="font:700 12px 'Consolas', 'Courier New', monospace; letter-spacing:1.5px;">STYLE F</text>
    <text x="22" y="226" fill="#101828" style="font:700 24px Georgia, serif;">Art Deco Luxury</text>
    <rect x="22" y="242" width="104" height="16" rx="8" fill="#FEE4E2"/>
    <text x="44" y="254" fill="#7A271A" style="font:700 11px 'Segoe UI', Arial, sans-serif;">DARK NATIVE</text>
  </g>
  <g transform="translate(380 478)" filter="url(#tile-shadow)">
    <rect width="264" height="272" rx="26" fill="#FFFFFF" fill-opacity="0.94"/>
    <rect x="18" y="18" width="228" height="150" rx="20" fill="#F7F3EC"/>
    <g transform="translate(378 474) scale(0.235)">
      
      <rect x="84" y="98" width="612" height="324" rx="26" fill="#F5F0E0"/>
      <rect x="150" y="164" width="178" height="68" fill="#FFE156" stroke="#1A1A1A" stroke-width="6"/>
      <rect x="220" y="230" width="196" height="66" fill="#FF6B6B" stroke="#1A1A1A" stroke-width="6"/>
      <rect x="432" y="150" width="94" height="38" transform="rotate(5 432 150)" fill="#4ECDC4" stroke="#1A1A1A" stroke-width="6"/>
      
    
    </g>
    <text x="22" y="198" fill="#667085" style="font:700 12px 'Consolas', 'Courier New', monospace; letter-spacing:1.5px;">STYLE G</text>
    <text x="22" y="226" fill="#101828" style="font:700 24px Georgia, serif;">Neo Brutalism</text>
    <rect x="22" y="242" width="104" height="16" rx="8" fill="#D1FADF"/>
    <text x="44" y="254" fill="#0F5132" style="font:700 11px 'Segoe UI', Arial, sans-serif;">WHITE OK</text>
  </g>
  <g transform="translate(668 478)" filter="url(#tile-shadow)">
    <rect width="264" height="272" rx="26" fill="#FFFFFF" fill-opacity="0.94"/>
    <rect x="18" y="18" width="228" height="150" rx="20" fill="#F7F3EC"/>
    <g transform="translate(666 474) scale(0.235)">
      
      <rect x="84" y="98" width="612" height="324" rx="26" fill="#0B0D1D"/>
      <line x1="118" y1="324" x2="662" y2="324" stroke="#2A6A8A" stroke-width="2"/>
      <line x1="196" y1="170" x2="124" y2="324" stroke="#1A3A5A" stroke-width="1.4"/>
      <line x1="276" y1="170" x2="214" y2="324" stroke="#1A3A5A" stroke-width="1.4"/>
      <line x1="356" y1="170" x2="318" y2="324" stroke="#1A3A5A" stroke-width="1.4"/>
      <line x1="436" y1="170" x2="422" y2="324" stroke="#1A3A5A" stroke-width="1.4"/>
      <line x1="148" y1="294" x2="632" y2="294" stroke="#40E8D0" stroke-opacity="0.76" stroke-width="2"/>
      
    
    </g>
    <text x="22" y="198" fill="#667085" style="font:700 12px 'Consolas', 'Courier New', monospace; letter-spacing:1.5px;">STYLE H</text>
    <text x="22" y="226" fill="#101828" style="font:700 24px Georgia, serif;">Retro Futurism</text>
    <rect x="22" y="242" width="104" height="16" rx="8" fill="#FEE4E2"/>
    <text x="44" y="254" fill="#7A271A" style="font:700 11px 'Segoe UI', Arial, sans-serif;">DARK NATIVE</text>
  </g>
  <g transform="translate(956 478)" filter="url(#tile-shadow)">
    <rect width="264" height="272" rx="26" fill="#FFFFFF" fill-opacity="0.94"/>
    <rect x="18" y="18" width="228" height="150" rx="20" fill="#F7F3EC"/>
    <g transform="translate(954 474) scale(0.235)">
      
      <rect x="84" y="98" width="612" height="324" rx="26" fill="#111116"/>
      <text x="146" y="220" style="font:700 58px Georgia, serif; fill:#E8E4DC;">Sharp</text>
      <text x="146" y="288" style="font:700 76px Georgia, serif; fill:#E8E4DC;">Evidence</text>
      <line x1="146" y1="300" x2="482" y2="300" stroke="#A89878" stroke-width="1.4" stroke-opacity="0.5"/>
      <line x1="146" y1="320" x2="402" y2="320" stroke="#2A2A30" stroke-width="1.4"/>
      
    
    </g>
    <text x="22" y="198" fill="#667085" style="font:700 12px 'Consolas', 'Courier New', monospace; letter-spacing:1.5px;">STYLE I</text>
    <text x="22" y="226" fill="#101828" style="font:700 24px Georgia, serif;">Dark Editorial</text>
    <rect x="22" y="242" width="104" height="16" rx="8" fill="#FEE4E2"/>
    <text x="44" y="254" fill="#7A271A" style="font:700 11px 'Segoe UI', Arial, sans-serif;">DARK NATIVE</text>
  </g>
  <g transform="translate(1244 478)" filter="url(#tile-shadow)">
    <rect width="264" height="272" rx="26" fill="#FFFFFF" fill-opacity="0.94"/>
    <rect x="18" y="18" width="228" height="150" rx="20" fill="#F7F3EC"/>
    <g transform="translate(1242 474) scale(0.235)">
      
      <rect x="84" y="98" width="612" height="324" rx="26" fill="#FAF5E8"/>
      <circle cx="176" cy="180" r="26" fill="#2EC4B6" stroke="#2A2A2A" stroke-width="3"/>
      <polygon points="506,130 548,214 464,214" fill="#FFD23F" stroke="#2A2A2A" stroke-width="3"/>
      <path d="M128 312 Q154 270 180 312 Q206 354 232 312 Q258 270 284 312" stroke="#FF8A5C" stroke-width="7" fill="none"/>
      <path d="M362 324 L392 294 L422 324 L452 294 L482 324" stroke="#FF6B9D" stroke-width="7" fill="none"/>
      <rect x="284" y="170" width="62" height="62" fill="#4A90D9" stroke="#2A2A2A" stroke-width="3"/>
      
    
    </g>
    <text x="22" y="198" fill="#667085" style="font:700 12px 'Consolas', 'Courier New', monospace; letter-spacing:1.5px;">STYLE J</text>
    <text x="22" y="226" fill="#101828" style="font:700 24px Georgia, serif;">Memphis Pop</text>
    <rect x="22" y="242" width="104" height="16" rx="8" fill="#D1FADF"/>
    <text x="44" y="254" fill="#0F5132" style="font:700 11px 'Segoe UI', Arial, sans-serif;">WHITE OK</text>
  </g>
</svg>