<svg width="1240" height="520" viewBox="0 0 1240 520" fill="none" xmlns="http://www.w3.org/2000/svg">
  <defs>
    <linearGradient id="bg-f" x1="42" y1="28" x2="1190" y2="502" gradientUnits="userSpaceOnUse">
      <stop stop-color="#F6F2EA"/>
      <stop offset="1" stop-color="#E8EDF7"/>
    </linearGradient>
    <filter id="shadow-f" x="-20%" y="-20%" width="140%" height="160%">
      <feDropShadow dx="0" dy="18" stdDeviation="20" flood-color="#101828" flood-opacity="0.10"/>
    </filter>
  </defs>

  <rect width="1240" height="520" rx="34" fill="url(#bg-f)"/>
  <circle cx="1108" cy="84" r="96" fill="#DCE4F3"/>
  <circle cx="92" cy="454" r="126" fill="#ECE2D4"/>

  <text x="58" y="58" fill="#667085" style="font:700 14px 'Consolas', 'Courier New', monospace; letter-spacing:1.8px;">STYLE F</text>
  <text x="58" y="94" fill="#101828" style="font:700 34px Georgia, serif;">Art Deco Luxury</text>
  <text x="58" y="122" fill="#475467" style="font:400 18px 'Segoe UI', Arial, sans-serif;">Dark ceremonial symmetry and gold linework</text>

  <g filter="url(#shadow-f)">
    <rect x="58" y="146" width="664" height="328" rx="34" fill="#FFFFFF" fill-opacity="0.9"/>
    
      <rect x="84" y="98" width="612" height="324" rx="26" fill="#0E1118"/>
      <path d="M390 140 L486 310 L294 310 Z" stroke="#C4A265" stroke-width="2.4" fill="none"/>
      <line x1="390" y1="124" x2="390" y2="334" stroke="#C4A265" stroke-width="1.4"/>
      <line x1="242" y1="320" x2="538" y2="320" stroke="#C4A265" stroke-width="1.4"/>
      <line x1="210" y1="160" x2="570" y2="160" stroke="#C4A265" stroke-opacity="0.36"/>
      <text x="470" y="258" fill="#A98A57" style="font:600 16px 'Segoe UI', Arial, sans-serif; letter-spacing:0.6px;"><tspan x="470" dy="0">CEREMONIAL</tspan><tspan x="470" dy="24">Symmetry and prestige</tspan></text>
    
  </g>

  <rect x="756" y="146" width="426" height="328" rx="30" fill="#FFFFFF" fill-opacity="0.92" filter="url(#shadow-f)"/>
  <text x="792" y="192" fill="#667085" style="font:700 12px 'Consolas', 'Courier New', monospace; letter-spacing:1.4px;">CASE EXAMPLE</text>
  <text x="792" y="234" fill="#101828" style="font:700 32px Georgia, serif;"><tspan x="792" dy="0">Grand Ballroom Awards Night</tspan></text>
  <text x="792" y="286" fill="#344054" style="font:400 18px 'Segoe UI', Arial, sans-serif;"><tspan x="792" dy="0">Premium event slides with centered</tspan><tspan x="792" dy="28">composition, metallic rules, and a</tspan><tspan x="792" dy="28">formal sense of occasion.</tspan></text>
  <text x="792" y="392" fill="#667085" style="font:700 12px 'Consolas', 'Courier New', monospace; letter-spacing:1.4px;">BEST FOR</text>
  <text x="792" y="418" fill="#101828" style="font:600 18px 'Segoe UI', Arial, sans-serif;">Luxury, hospitality, awards</text>

  <rect x="792" y="438" width="118" height="24" rx="12" fill="#FEE4E2"/>
  <text x="816" y="454" fill="#7A271A" style="font:700 12px 'Segoe UI', Arial, sans-serif;">DARK NATIVE</text>
  <text x="930" y="454" fill="#475467" style="font:600 14px 'Segoe UI', Arial, sans-serif;">Background: paper only</text>
</svg>