<svg width="1240" height="520" viewBox="0 0 1240 520" fill="none" xmlns="http://www.w3.org/2000/svg">
  <defs>
    <linearGradient id="bg-d" x1="42" y1="28" x2="1190" y2="502" gradientUnits="userSpaceOnUse">
      <stop stop-color="#F6F2EA"/>
      <stop offset="1" stop-color="#E8EDF7"/>
    </linearGradient>
    <filter id="shadow-d" x="-20%" y="-20%" width="140%" height="160%">
      <feDropShadow dx="0" dy="18" stdDeviation="20" flood-color="#101828" flood-opacity="0.10"/>
    </filter>
  </defs>

  <rect width="1240" height="520" rx="34" fill="url(#bg-d)"/>
  <circle cx="1108" cy="84" r="96" fill="#DCE4F3"/>
  <circle cx="92" cy="454" r="126" fill="#ECE2D4"/>

  <text x="58" y="58" fill="#667085" style="font:700 14px 'Consolas', 'Courier New', monospace; letter-spacing:1.8px;">STYLE D</text>
  <text x="58" y="94" fill="#101828" style="font:700 34px Georgia, serif;">Bauhaus Geometry</text>
  <text x="58" y="122" fill="#475467" style="font:400 18px 'Segoe UI', Arial, sans-serif;">Poster tension built from hard geometry</text>

  <g filter="url(#shadow-d)">
    <rect x="58" y="146" width="664" height="328" rx="34" fill="#FFFFFF" fill-opacity="0.9"/>
    
      <rect x="84" y="98" width="612" height="324" rx="26" fill="#F2EDE4"/>
      <polygon points="124,392 394,134 658,134 388,392" fill="#D4C8A8"/>
      <polygon points="408,392 696,190 696,392" fill="#8A3A2A"/>
      <rect x="154" y="170" width="116" height="28" fill="#1A1A1A"/>
      <text x="466" y="284" fill="#6A6560" style="font:600 16px 'Segoe UI', Arial, sans-serif; letter-spacing:0.6px;"><tspan x="466" dy="0">BUILD FAST</tspan><tspan x="466" dy="24">Geometry as hierarchy</tspan></text>
    
  </g>

  <rect x="756" y="146" width="426" height="328" rx="30" fill="#FFFFFF" fill-opacity="0.92" filter="url(#shadow-d)"/>
  <text x="792" y="192" fill="#667085" style="font:700 12px 'Consolas', 'Courier New', monospace; letter-spacing:1.4px;">CASE EXAMPLE</text>
  <text x="792" y="234" fill="#101828" style="font:700 32px Georgia, serif;"><tspan x="792" dy="0">Modular Construction Systems</tspan></text>
  <text x="792" y="286" fill="#344054" style="font:400 18px 'Segoe UI', Arial, sans-serif;"><tspan x="792" dy="0">Strategy slides using diagonal blocks,</tspan><tspan x="792" dy="28">bold anchors, and a visual rhythm</tspan><tspan x="792" dy="28">that feels structural and direct.</tspan></text>
  <text x="792" y="392" fill="#667085" style="font:700 12px 'Consolas', 'Courier New', monospace; letter-spacing:1.4px;">BEST FOR</text>
  <text x="792" y="418" fill="#101828" style="font:600 18px 'Segoe UI', Arial, sans-serif;">Architecture, systems, strategy</text>

  <rect x="792" y="438" width="118" height="24" rx="12" fill="#D1FADF"/>
  <text x="816" y="454" fill="#0F5132" style="font:700 12px 'Segoe UI', Arial, sans-serif;">WHITE OK</text>
  <text x="930" y="454" fill="#475467" style="font:600 14px 'Segoe UI', Arial, sans-serif;">Background: paper or white</text>
</svg>