<svg width="1240" height="520" viewBox="0 0 1240 520" fill="none" xmlns="http://www.w3.org/2000/svg">
  <defs>
    <linearGradient id="bg-c" x1="42" y1="28" x2="1190" y2="502" gradientUnits="userSpaceOnUse">
      <stop stop-color="#F6F2EA"/>
      <stop offset="1" stop-color="#E8EDF7"/>
    </linearGradient>
    <filter id="shadow-c" x="-20%" y="-20%" width="140%" height="160%">
      <feDropShadow dx="0" dy="18" stdDeviation="20" flood-color="#101828" flood-opacity="0.10"/>
    </filter>
  </defs>

  <rect width="1240" height="520" rx="34" fill="url(#bg-c)"/>
  <circle cx="1108" cy="84" r="96" fill="#DCE4F3"/>
  <circle cx="92" cy="454" r="126" fill="#ECE2D4"/>

  <text x="58" y="58" fill="#667085" style="font:700 14px 'Consolas', 'Courier New', monospace; letter-spacing:1.8px;">STYLE C</text>
  <text x="58" y="94" fill="#101828" style="font:700 34px Georgia, serif;">Risograph Print</text>
  <text x="58" y="122" fill="#475467" style="font:400 18px 'Segoe UI', Arial, sans-serif;">Two-ink collisions with rough print energy</text>

  <g filter="url(#shadow-c)">
    <rect x="58" y="146" width="664" height="328" rx="34" fill="#FFFFFF" fill-opacity="0.9"/>
    
      <rect x="84" y="98" width="612" height="324" rx="26" fill="#F2EDE0"/>
      <circle cx="248" cy="210" r="82" fill="#E8456B" fill-opacity="0.78"/>
      <circle cx="328" cy="224" r="82" fill="#1A5C5A" fill-opacity="0.78"/>
      <rect x="154" y="292" width="220" height="20" fill="#1A5C5A"/>
      <rect x="162" y="300" width="220" height="20" fill="#E8456B" fill-opacity="0.28"/>
      <rect x="452" y="138" width="112" height="112" fill="#1A5C5A"/>
      <text x="452" y="300" fill="#6A6560" style="font:600 14px 'Segoe UI', Arial, sans-serif; letter-spacing:0.6px;"><tspan x="452" dy="0">POSTER ENERGY</tspan><tspan x="452" dy="22">Layered and imperfect</tspan></text>
    
  </g>

  <rect x="756" y="146" width="426" height="328" rx="30" fill="#FFFFFF" fill-opacity="0.92" filter="url(#shadow-c)"/>
  <text x="792" y="192" fill="#667085" style="font:700 12px 'Consolas', 'Courier New', monospace; letter-spacing:1.4px;">CASE EXAMPLE</text>
  <text x="792" y="234" fill="#101828" style="font:700 32px Georgia, serif;"><tspan x="792" dy="0">Indie Festival Launch</tspan></text>
  <text x="792" y="286" fill="#344054" style="font:400 18px 'Segoe UI', Arial, sans-serif;"><tspan x="792" dy="0">Creative pitch slides with overprint</tspan><tspan x="792" dy="28">circles, offset bars, and a loud</tspan><tspan x="792" dy="28">poster-like headline block.</tspan></text>
  <text x="792" y="392" fill="#667085" style="font:700 12px 'Consolas', 'Courier New', monospace; letter-spacing:1.4px;">BEST FOR</text>
  <text x="792" y="418" fill="#101828" style="font:600 18px 'Segoe UI', Arial, sans-serif;">Events, youth campaigns, indie brands</text>

  <rect x="792" y="438" width="118" height="24" rx="12" fill="#D1FADF"/>
  <text x="816" y="454" fill="#0F5132" style="font:700 12px 'Segoe UI', Arial, sans-serif;">WHITE OK</text>
  <text x="930" y="454" fill="#475467" style="font:600 14px 'Segoe UI', Arial, sans-serif;">Background: paper or white</text>
</svg>