<svg width="1240" height="520" viewBox="0 0 1240 520" fill="none" xmlns="http://www.w3.org/2000/svg">
  <defs>
    <linearGradient id="bg-g" x1="42" y1="28" x2="1190" y2="502" gradientUnits="userSpaceOnUse">
      <stop stop-color="#F6F2EA"/>
      <stop offset="1" stop-color="#E8EDF7"/>
    </linearGradient>
    <filter id="shadow-g" x="-20%" y="-20%" width="140%" height="160%">
      <feDropShadow dx="0" dy="18" stdDeviation="20" flood-color="#101828" flood-opacity="0.10"/>
    </filter>
  </defs>

  <rect width="1240" height="520" rx="34" fill="url(#bg-g)"/>
  <circle cx="1108" cy="84" r="96" fill="#DCE4F3"/>
  <circle cx="92" cy="454" r="126" fill="#ECE2D4"/>

  <text x="58" y="58" fill="#667085" style="font:700 14px 'Consolas', 'Courier New', monospace; letter-spacing:1.8px;">STYLE G</text>
  <text x="58" y="94" fill="#101828" style="font:700 34px Georgia, serif;">Neo Brutalism</text>
  <text x="58" y="122" fill="#475467" style="font:400 18px 'Segoe UI', Arial, sans-serif;">Hard shadows, thick borders, startup noise</text>

  <g filter="url(#shadow-g)">
    <rect x="58" y="146" width="664" height="328" rx="34" fill="#FFFFFF" fill-opacity="0.9"/>
    
      <rect x="84" y="98" width="612" height="324" rx="26" fill="#F5F0E0"/>
      <rect x="150" y="164" width="178" height="68" fill="#FFE156" stroke="#1A1A1A" stroke-width="6"/>
      <rect x="220" y="230" width="196" height="66" fill="#FF6B6B" stroke="#1A1A1A" stroke-width="6"/>
      <rect x="432" y="150" width="94" height="38" transform="rotate(5 432 150)" fill="#4ECDC4" stroke="#1A1A1A" stroke-width="6"/>
      <text x="464" y="330" fill="#6A6560" style="font:600 16px 'Segoe UI', Arial, sans-serif; letter-spacing:0.6px;"><tspan x="464" dy="0">SHIP NOW</tspan><tspan x="464" dy="24">Raw contrast wins</tspan></text>
    
  </g>

  <rect x="756" y="146" width="426" height="328" rx="30" fill="#FFFFFF" fill-opacity="0.92" filter="url(#shadow-g)"/>
  <text x="792" y="192" fill="#667085" style="font:700 12px 'Consolas', 'Courier New', monospace; letter-spacing:1.4px;">CASE EXAMPLE</text>
  <text x="792" y="234" fill="#101828" style="font:700 32px Georgia, serif;"><tspan x="792" dy="0">AI Workflow Tool Launch</tspan></text>
  <text x="792" y="286" fill="#344054" style="font:400 18px 'Segoe UI', Arial, sans-serif;"><tspan x="792" dy="0">Punchy launch slides with stacked</tspan><tspan x="792" dy="28">blocks, hard strokes, and a blunt</tspan><tspan x="792" dy="28">headline rhythm built for momentum.</tspan></text>
  <text x="792" y="392" fill="#667085" style="font:700 12px 'Consolas', 'Courier New', monospace; letter-spacing:1.4px;">BEST FOR</text>
  <text x="792" y="418" fill="#101828" style="font:600 18px 'Segoe UI', Arial, sans-serif;">Startups, product launches, manifestos</text>

  <rect x="792" y="438" width="118" height="24" rx="12" fill="#D1FADF"/>
  <text x="816" y="454" fill="#0F5132" style="font:700 12px 'Segoe UI', Arial, sans-serif;">WHITE OK</text>
  <text x="930" y="454" fill="#475467" style="font:600 14px 'Segoe UI', Arial, sans-serif;">Background: paper or white</text>
</svg>